<?xml version="1.0" standalone="no"?>
<!DOCTYPE svg PUBLIC "-//W3C//DTD SVG 20010904//EN"
 "http://www.w3.org/TR/2001/REC-SVG-20010904/DTD/svg10.dtd">
<svg version="1.0" xmlns="http://www.w3.org/2000/svg"
 width="2244.000000pt" height="2244.000000pt" viewBox="0 0 2244.000000 2244.000000"
 preserveAspectRatio="xMidYMid meet">
<metadata>
Created by potrace 1.14, written by Peter Selinger 2001-2017
</metadata>
<g transform="translate(0.000000,2244.000000) scale(0.100000,-0.100000)"
fill="#000000" stroke="none">
<path d="M11305 22418 c-20 -66 -27 -92 -30 -111 -2 -12 -8 -46 -15 -76 l-12
-54 -19 24 c-11 13 -44 56 -74 96 -31 40 -59 74 -63 77 -4 2 -27 -58 -52 -135
-25 -76 -48 -139 -51 -139 -13 0 -56 66 -80 122 -35 84 -46 75 -45 -37 0 -52
0 -95 -2 -95 -10 0 -118 80 -150 110 -13 13 -14 4 -9 -80 3 -52 8 -106 11
-120 6 -25 5 -25 -22 5 -15 17 -43 51 -61 77 -37 52 -52 60 -100 56 -34 -2
-34 -1 -11 -110 4 -21 6 -38 3 -38 -6 0 -104 70 -113 80 -11 12 -87 53 -123
66 l-38 13 5 -43 c6 -46 25 -108 57 -182 10 -25 19 -48 19 -51 0 -5 -46 1
-126 16 -27 5 -83 13 -123 17 l-73 6 24 -24 c68 -72 148 -159 148 -162 0 -3
-24 2 -52 10 -130 34 -298 62 -298 49 0 -10 84 -117 141 -179 l51 -56 -44 16
c-84 31 -208 17 -208 -23 0 -18 36 -90 64 -128 12 -16 26 -35 29 -42 4 -7 -12
-29 -39 -55 -26 -24 -59 -62 -75 -86 l-27 -43 -12 38 c-20 61 -60 135 -98 183
-55 69 -64 73 -82 41 -15 -25 -61 -124 -95 -206 l-17 -40 -12 39 -11 40 -65
-92 c-36 -51 -70 -92 -77 -92 -6 0 -23 4 -36 9 -26 10 -30 2 -51 -100 -5 -22
-11 -25 -40 -24 -19 0 -38 4 -42 8 -4 4 -26 64 -49 134 -23 71 -46 127 -51
126 -5 -2 -11 -40 -14 -85 l-5 -83 -14 45 c-15 50 -14 48 -35 146 -45 207 -77
256 -165 250 -74 -6 -97 -28 -116 -113 l-17 -71 -31 9 c-17 5 -32 7 -34 5 -2
-2 5 -40 16 -84 24 -93 26 -112 9 -112 -7 0 -51 23 -98 50 -46 28 -95 53 -107
56 -22 6 -23 4 -13 -21 15 -39 33 -63 102 -133 l62 -62 -18 -33 c-34 -59 -66
-85 -66 -54 0 40 -182 338 -221 363 -15 9 -76 -53 -99 -101 -32 -66 -7 -134
101 -276 l60 -79 -107 0 -106 0 6 -27 c7 -29 54 -124 65 -133 25 -20 80 -100
69 -101 -7 0 -45 -1 -84 -1 -65 0 -76 3 -120 34 -27 19 -87 61 -134 93 -47 33
-86 63 -88 67 -8 17 -32 6 -59 -27 l-28 -36 -155 76 c-85 41 -166 76 -180 77
-24 3 -24 1 -24 -65 l0 -68 -71 6 c-38 4 -92 8 -119 11 l-49 4 19 -22 c10 -13
26 -28 34 -35 21 -17 12 -16 -77 8 -94 26 -170 27 -194 2 -10 -10 -20 -41 -23
-71 -3 -29 -10 -61 -15 -70 -10 -19 -91 -96 -95 -91 -2 2 -25 33 -51 69 -26
36 -52 64 -58 62 -5 -2 -29 -16 -53 -32 -23 -17 -47 -30 -53 -30 -6 0 -10 39
-10 98 0 123 -18 198 -46 194 -23 -3 -16 -1 -126 -36 -80 -26 -89 -27 -116
-13 -55 29 -96 31 -127 6 -31 -25 -60 -84 -50 -101 4 -6 3 -8 -3 -5 -6 4 -14
24 -18 44 -20 113 -55 154 -55 67 0 -72 -22 -49 -46 46 l-20 84 -27 -35 c-34
-46 -69 -127 -92 -214 -22 -85 -31 -98 -55 -85 -10 5 -36 12 -58 14 l-40 6
-27 -78 c-15 -42 -29 -79 -31 -81 -5 -6 -72 70 -92 104 -9 17 -21 44 -27 62
l-10 32 -30 -27 c-87 -80 -116 -169 -90 -279 3 -13 4 -23 2 -23 -2 0 -42 44
-88 97 -123 143 -141 163 -150 163 -5 0 -7 -27 -6 -60 2 -33 -1 -59 -5 -58 -4
2 -62 56 -128 121 -104 103 -125 118 -122 86 7 -68 16 -119 32 -187 26 -111
26 -110 -17 -114 -78 -7 -97 -88 -47 -212 14 -37 24 -69 22 -72 -3 -2 -43 -10
-89 -16 -46 -6 -86 -13 -88 -15 -7 -5 95 -95 200 -176 59 -45 106 -83 105 -85
-5 -4 -101 50 -149 85 -46 33 -50 33 -73 18 -13 -8 -24 -21 -24 -29 0 -31 101
-138 184 -195 12 -8 23 -17 26 -20 3 -3 12 -10 21 -16 77 -47 189 -136 189
-149 0 -4 -34 -6 -76 -5 -80 2 -103 13 -231 110 l-43 33 -23 -22 c-13 -12 -26
-22 -29 -22 -3 0 -28 37 -55 83 -56 90 -95 132 -115 124 -7 -2 -24 -41 -37
-86 -13 -45 -28 -84 -32 -86 -9 -6 -91 58 -170 135 l-62 61 -14 -31 c-8 -21
-17 -29 -25 -24 -48 28 -111 75 -155 117 l-52 49 -15 -25 c-38 -57 -22 -152
45 -279 18 -36 11 -41 -48 -34 -31 3 -83 13 -115 22 -32 9 -62 14 -66 10 -3
-4 3 -46 16 -93 12 -48 21 -88 19 -89 -2 -2 -24 -5 -50 -6 -51 -3 -51 -4 -47
-78 1 -19 9 -43 17 -52 40 -45 -97 -9 -236 61 -65 33 -90 35 -166 13 -34 -11
-34 -14 4 -97 15 -33 31 -72 34 -87 6 -24 4 -26 -14 -23 -36 7 -40 -5 -14 -40
l26 -33 -88 20 c-114 25 -98 22 -248 58 -174 42 -165 40 -207 47 -32 5 -37 3
-40 -18 -2 -13 2 -57 8 -97 15 -102 47 -145 147 -197 81 -42 95 -56 49 -49
-15 2 -80 5 -144 7 -138 5 -145 -1 -105 -81 l24 -48 -58 2 c-67 3 -108 -18
-146 -75 -87 -128 75 -223 281 -164 18 5 17 3 -4 -31 -12 -21 -20 -39 -18 -41
2 -2 57 -5 122 -6 l118 -1 -30 -27 c-56 -52 -117 -98 -165 -126 -26 -15 -45
-31 -41 -36 3 -5 36 -8 74 -7 38 1 72 -1 75 -4 3 -3 -13 -21 -37 -39 -24 -19
-47 -39 -53 -45 -5 -6 -48 -41 -95 -79 -70 -57 -129 -108 -104 -91 3 3 17 1
30 -4 24 -10 171 -24 232 -23 37 1 40 -7 12 -32 -32 -29 -24 -41 40 -60 33
-10 60 -20 60 -22 0 -3 -15 -23 -34 -46 -55 -68 -54 -91 4 -128 26 -17 52 -24
125 -35 22 -3 41 -7 42 -7 1 -1 -11 -29 -27 -62 l-28 -60 101 -6 c161 -11 234
-46 254 -122 20 -74 82 -131 165 -151 19 -4 28 -13 28 -27 0 -15 -4 -18 -17
-11 -37 18 -170 36 -309 41 -34 1 -78 55 -131 161 l-50 99 -59 -43 c-56 -40
-105 -93 -116 -126 -3 -8 6 -27 20 -43 l26 -27 -55 16 c-30 9 -81 29 -114 44
l-60 28 -5 -65 -5 -65 -90 65 c-49 35 -92 61 -95 56 -3 -4 -5 -24 -4 -43 1
-20 1 -36 -1 -36 -1 0 -19 7 -38 15 -23 9 -69 15 -124 15 l-88 0 -1 -80 -1
-80 40 -37 40 -36 -54 7 c-30 4 -90 16 -134 26 -150 35 -142 39 -88 -38 25
-37 57 -82 70 -100 l24 -32 -27 -24 c-22 -18 -28 -32 -28 -63 l-1 -40 -95 -7
c-142 -9 -214 -17 -222 -25 -15 -15 41 -102 114 -175 43 -43 78 -79 78 -80 0
-1 -35 -3 -77 -3 -133 -1 -124 2 -111 -35 41 -121 125 -158 355 -159 134 -1
142 -2 140 -20 -2 -10 -6 -21 -9 -24 -13 -14 -187 -13 -258 1 -127 25 -217 41
-274 50 -21 3 -47 7 -56 9 -10 2 -40 7 -67 11 -26 3 -57 8 -68 10 -11 2 -44 7
-72 10 l-53 5 0 -78 0 -79 73 -55 c39 -31 87 -64 105 -73 51 -26 32 -30 -34
-6 -66 23 -244 40 -244 23 0 -27 107 -101 182 -126 28 -10 21 -27 -9 -28 -16
0 -37 -2 -48 -4 -17 -3 -139 -19 -223 -30 -13 -2 -26 -5 -28 -7 -2 -3 14 -23
34 -45 37 -39 152 -107 166 -98 3 3 3 1 -1 -3 -5 -5 -43 -19 -85 -32 -43 -13
-78 -27 -78 -32 0 -4 2 -8 5 -8 3 0 44 -7 92 -15 49 -8 117 -17 153 -20 36 -3
85 -8 110 -11 25 -4 51 -7 58 -7 35 -1 -29 -26 -201 -78 l-109 -33 64 -32 c92
-46 172 -68 229 -61 31 4 92 29 176 72 l128 66 19 -43 c13 -28 20 -67 20 -113
l1 -70 -70 -1 c-122 -1 -197 -18 -282 -65 -105 -58 -133 -92 -133 -156 0 -48
28 -78 85 -92 39 -9 38 -9 -24 -10 l-63 -1 6 -30 c9 -45 36 -77 82 -95 50 -19
100 -13 167 22 45 22 77 25 77 6 0 -4 -25 -39 -55 -76 -30 -38 -55 -74 -55
-81 0 -23 73 -48 155 -53 44 -3 81 -7 83 -8 2 -2 -4 -17 -12 -34 -17 -32 -21
-70 -8 -72 79 -8 73 -19 -11 -19 l-77 0 0 -47 c0 -69 9 -93 33 -93 44 0 -3
-18 -127 -50 -185 -46 -175 -37 -116 -95 54 -53 60 -64 33 -63 -20 1 -144 -11
-183 -17 -219 -38 -277 -106 -175 -205 42 -41 43 -52 8 -80 -46 -36 -113 -101
-113 -109 0 -10 84 -56 157 -86 66 -27 69 -23 -66 -108 -47 -29 -86 -58 -88
-63 -3 -11 43 -40 107 -67 33 -14 71 -20 146 -21 116 -1 113 4 50 -85 l-31
-43 -70 7 c-38 3 -90 10 -115 15 -25 5 -61 12 -80 14 -19 3 -55 8 -80 12 l-45
6 100 -103 c55 -57 104 -107 110 -111 21 -15 -5 -18 -46 -4 -24 8 -93 27 -154
42 -60 14 -116 29 -122 31 -31 12 -8 -17 39 -51 29 -20 46 -36 38 -37 -8 0
-63 -2 -122 -2 -58 -1 -109 -4 -111 -7 -3 -3 9 -32 26 -65 25 -47 41 -64 74
-80 23 -11 41 -24 40 -28 -2 -5 -37 -22 -80 -39 -99 -38 -101 -54 -13 -97 36
-17 70 -31 77 -31 9 0 10 -3 3 -10 -14 -14 -155 -55 -241 -70 -40 -7 -74 -16
-74 -19 -15 -77 -3 -106 53 -131 40 -18 40 -18 19 -31 -43 -27 -16 -95 53
-131 l28 -15 -48 -22 c-27 -12 -55 -25 -63 -29 -7 -4 -30 -56 -51 -115 l-38
-108 79 -46 c43 -25 79 -49 79 -53 0 -3 -27 -19 -60 -35 -58 -28 -69 -41 -52
-60 5 -6 16 -28 25 -51 l16 -41 -40 -17 c-59 -26 -141 -107 -172 -170 -15 -30
-27 -59 -27 -65 0 -23 194 -69 274 -65 l56 3 -3 -62 c-5 -88 -2 -96 36 -90 17
3 58 13 91 24 33 10 61 17 62 16 2 -2 -73 -107 -95 -133 -13 -16 16 -42 55
-50 17 -3 50 -1 73 6 24 6 45 9 47 7 3 -2 -14 -24 -37 -48 -38 -40 -94 -137
-84 -147 5 -5 114 56 155 88 60 46 62 44 34 -27 -71 -186 -113 -304 -119 -336
-7 -34 -6 -35 17 -30 38 9 196 87 293 146 171 103 235 131 250 107 3 -4 -9
-34 -25 -64 -25 -45 -28 -56 -16 -57 9 -1 22 -2 29 -3 23 -4 102 27 137 53 33
25 32 23 -20 -51 -30 -43 -79 -113 -107 -155 -29 -43 -60 -87 -68 -98 -20 -26
-19 -35 5 -35 24 0 63 22 103 59 l28 26 -27 -60 c-15 -33 -41 -101 -59 -152
l-33 -91 40 -4 c43 -4 55 2 132 72 69 61 72 64 109 99 34 32 36 33 58 17 50
-35 87 -14 165 93 35 48 53 67 50 51 -13 -57 -14 -80 -5 -75 5 4 17 8 26 10
36 7 270 94 328 121 126 60 118 57 111 39 -3 -10 -9 -40 -12 -68 -6 -44 -4
-49 10 -44 46 18 166 49 166 43 0 -1 -9 -20 -19 -42 -11 -22 -22 -56 -26 -77
-7 -33 -5 -37 14 -37 12 0 59 20 105 44 46 25 92 43 103 41 10 -2 20 -4 23 -4
3 -1 5 -41 4 -90 l0 -89 30 11 c17 6 46 22 65 36 l34 26 -13 -25 c-8 -14 -14
-55 -14 -92 -1 -78 20 -115 77 -137 77 -29 120 8 169 145 18 51 36 94 39 94 3
0 16 -24 30 -52 28 -62 100 -138 129 -138 12 0 35 7 51 16 29 14 28 12 -15
-41 -25 -31 -46 -58 -46 -62 0 -19 173 23 251 62 28 13 23 7 -26 -36 -132
-117 -255 -254 -255 -284 0 -3 15 -3 33 1 89 16 123 -2 113 -61 -3 -16 -8 -50
-12 -73 l-7 -44 34 6 c19 3 52 8 74 12 22 3 43 8 48 11 10 6 10 4 -17 -80 -33
-105 -41 -157 -24 -157 23 0 117 37 173 69 30 17 55 29 55 27 0 -2 -22 -50
-49 -107 -28 -57 -53 -117 -57 -133 -7 -28 -6 -28 27 -21 41 8 201 83 211 99
10 14 11 5 10 -116 -1 -69 3 -98 11 -99 59 -6 133 27 199 88 31 29 45 38 35
22 -34 -52 -56 -154 -41 -193 5 -14 9 -14 37 1 46 23 135 93 204 160 97 94 93
94 72 6 -10 -42 -21 -91 -24 -109 -2 -19 -6 -39 -7 -46 -4 -18 59 -23 79 -6
14 11 15 10 10 -7 -7 -25 -15 -61 -21 -97 -4 -25 -1 -28 37 -36 23 -5 95 -9
160 -9 103 0 121 2 143 20 36 28 54 76 54 144 l1 58 32 -40 c80 -99 81 -99
112 -84 31 16 33 21 39 146 2 48 4 96 5 106 2 33 17 17 38 -40 36 -99 67 -163
80 -163 16 0 39 45 48 92 8 41 53 87 131 136 28 18 53 32 56 32 3 0 5 -38 5
-85 0 -47 3 -88 6 -92 10 -9 85 15 127 42 l38 24 -29 -75 c-36 -94 -70 -196
-66 -200 5 -5 116 55 165 88 23 16 42 24 42 18 0 -6 -11 -56 -25 -113 -42
-176 -55 -239 -51 -245 2 -4 27 -7 55 -6 45 0 55 4 81 32 35 39 40 40 40 3 0
-49 64 -102 143 -116 42 -8 72 10 88 53 8 21 23 172 21 216 -1 16 4 15 31 -11
31 -28 101 -83 122 -96 7 -4 10 30 10 104 -1 60 2 109 6 109 4 0 31 -20 61
-43 96 -79 180 -137 188 -132 5 3 7 15 5 28 -2 12 -6 58 -10 102 -3 44 -9 91
-12 104 l-6 23 44 -24 c52 -29 168 -72 175 -65 3 3 1 31 -5 63 -15 78 -15 77
17 69 15 -4 46 -9 69 -11 l43 -3 -1 52 c-2 72 9 116 39 154 40 53 47 45 58
-69 4 -40 8 -80 10 -88 1 -8 3 -17 3 -20 1 -4 30 -5 96 -1 16 1 24 14 38 64
10 34 22 71 27 82 7 17 8 15 7 -10 -2 -51 13 -153 28 -188 16 -38 58 -84 86
-92 13 -5 26 1 39 17 l20 23 38 -41 c20 -23 54 -71 76 -107 32 -56 40 -64 52
-52 19 19 31 55 30 87 -1 21 1 24 11 16 7 -6 13 -19 13 -29 0 -35 149 -165
163 -142 3 5 8 29 11 53 4 25 9 56 11 70 3 14 7 34 9 45 29 152 37 172 50 122
3 -13 19 -42 36 -66 38 -52 102 -83 163 -79 38 3 42 5 39 26 -3 21 -1 23 20
17 103 -32 488 -263 648 -389 106 -83 110 -87 221 -196 208 -205 346 -411 447
-671 41 -106 96 -313 107 -404 4 -27 8 -57 10 -65 2 -8 7 -49 10 -90 4 -41 9
-86 11 -100 5 -28 5 -438 0 -515 -9 -139 -18 -262 -21 -275 -2 -8 -6 -55 -9
-105 -4 -49 -9 -106 -11 -125 -9 -71 -31 -290 -40 -410 -4 -41 -8 -91 -10
-110 -2 -19 -6 -75 -10 -125 -3 -49 -8 -112 -11 -140 -2 -27 -6 -255 -8 -506
-3 -414 -10 -631 -21 -729 -2 -19 -7 -60 -10 -90 -29 -245 -93 -411 -280 -715
-95 -155 -150 -246 -207 -343 -55 -93 -227 -451 -308 -642 -45 -107 -88 -209
-96 -225 -7 -17 -27 -66 -44 -110 -45 -113 -123 -260 -175 -330 -112 -151
-335 -338 -685 -576 -115 -78 -132 -86 -210 -103 -47 -9 -94 -19 -104 -21 -11
-3 -46 -7 -78 -9 -62 -6 -138 -23 -138 -32 0 -3 12 -21 26 -39 l25 -34 -75
-35 c-42 -19 -79 -41 -82 -50 -9 -24 -63 -37 -179 -42 -142 -6 -191 -11 -239
-25 -29 -8 -36 -13 -25 -19 33 -18 116 -24 325 -23 l220 1 -48 -52 c-26 -28
-48 -54 -48 -58 0 -7 48 -13 77 -9 6 1 14 -3 18 -9 3 -5 1 -10 -4 -10 -6 0
-11 -6 -11 -13 0 -16 69 -5 215 33 124 32 219 41 300 28 28 -4 68 -11 90 -14
44 -7 227 -7 262 0 12 3 53 7 90 10 37 4 79 8 93 11 14 2 50 7 80 10 30 3 68
8 83 11 22 5 32 1 43 -15 9 -12 31 -23 54 -27 49 -8 101 -39 107 -65 4 -12 15
-19 32 -20 52 -2 80 -8 103 -20 13 -7 30 -14 38 -15 63 -11 81 -12 124 -13
l49 -1 -19 -21 c-10 -12 -57 -49 -104 -82 -116 -84 -146 -113 -170 -162 -22
-46 -28 -49 -247 -130 -40 -15 -73 -30 -73 -35 0 -11 53 -16 187 -19 100 -2
125 1 246 33 149 39 263 81 346 127 29 17 54 29 55 27 2 -2 13 -32 25 -68 28
-77 34 -86 52 -68 41 40 170 148 188 157 19 11 21 9 22 -16 1 -15 1 -32 0 -36
-2 -10 210 -7 258 4 18 4 53 21 76 38 l42 30 35 -24 c56 -38 150 -83 188 -90
19 -4 87 -8 150 -9 91 -2 134 2 205 19 65 16 98 20 120 13 93 -28 239 -36 565
-33 320 3 393 6 505 21 62 8 81 11 106 19 11 4 43 0 72 -9 212 -63 257 -72
287 -56 11 6 20 19 20 29 0 19 -74 141 -94 153 -7 5 -5 8 6 8 9 0 52 -18 95
-40 101 -53 134 -64 290 -95 70 -15 135 -28 145 -30 9 -2 38 -7 65 -11 26 -5
50 -9 53 -9 8 -2 83 -17 100 -20 37 -7 196 -28 293 -40 23 -3 58 -7 77 -10
223 -28 794 -25 824 5 11 11 12 10 -89 39 -81 23 -183 47 -240 55 -22 4 -47
13 -55 21 -13 13 -8 15 40 16 30 1 75 3 100 4 25 2 158 6 295 9 290 5 296 6
435 53 158 52 183 56 441 57 122 1 191 5 200 12 8 7 30 15 49 19 19 4 39 10
43 12 16 10 -149 87 -648 305 -38 17 -88 39 -110 49 -147 65 -311 135 -377
159 -76 29 -213 108 -318 184 -187 135 -379 335 -558 581 -22 30 -142 215
-142 219 0 2 -20 39 -45 81 -56 95 -191 365 -234 471 -18 43 -39 93 -46 109
-64 146 -234 653 -270 805 -2 8 -22 89 -45 180 -23 90 -44 176 -46 190 -3 14
-11 52 -19 85 -8 33 -16 71 -19 85 -3 20 -9 51 -21 110 -1 3 -4 19 -8 35 -3
17 -9 46 -11 65 -3 19 -8 46 -11 60 -2 13 -7 42 -11 64 -3 22 -7 43 -9 46 -2
3 -6 30 -9 60 -3 30 -10 80 -15 110 -9 53 -7 158 3 209 10 47 36 247 41 316 1
22 6 76 10 120 11 137 14 192 19 465 7 325 12 401 36 555 36 234 86 369 164
438 37 33 123 81 174 98 63 20 221 97 291 140 105 67 178 126 292 237 100 97
109 109 149 200 65 146 102 224 121 252 9 14 28 62 42 107 30 92 86 243 97
258 4 6 15 35 25 65 10 30 21 60 25 65 3 6 21 51 39 100 19 50 50 124 71 165
36 72 176 309 234 397 l28 41 33 -19 33 -20 1 77 c1 105 7 110 88 73 36 -16
67 -28 69 -27 3 3 -2 15 -44 106 -18 38 -19 44 -5 57 8 9 23 13 33 10 29 -9
45 20 32 62 -9 29 -8 42 4 65 l15 29 46 -26 c25 -14 48 -24 50 -21 2 2 -8 29
-24 60 -39 81 -23 91 59 34 82 -58 158 -102 158 -92 0 14 -52 116 -86 170
l-34 54 27 -11 c16 -6 96 -46 179 -90 83 -43 154 -79 158 -79 10 0 -36 91 -96
189 -32 51 -58 95 -58 98 0 5 128 -65 150 -82 36 -28 232 -105 268 -105 23 0
-25 68 -102 148 -39 40 -64 71 -56 68 153 -50 240 -71 240 -58 0 4 -43 52 -95
106 -52 55 -93 101 -92 103 2 2 30 -6 63 -18 82 -29 214 -69 244 -75 14 -3 33
-7 43 -10 9 -3 17 -2 17 2 0 9 -48 72 -75 99 -53 52 -50 54 27 31 141 -44 136
-45 86 16 -23 29 -47 56 -51 59 -5 3 20 25 55 47 34 23 75 50 90 62 14 11 28
20 30 20 2 0 5 -46 5 -102 1 -57 2 -113 2 -125 l1 -23 63 24 c34 13 79 31 99
40 l37 16 17 -53 c17 -50 45 -109 66 -134 18 -22 180 110 254 207 21 27 39 49
40 47 1 -1 5 -24 8 -52 7 -47 10 -72 22 -138 10 -62 47 -139 85 -177 22 -22
43 -40 48 -40 9 0 131 253 131 272 0 8 3 9 10 2 5 -5 12 -34 15 -64 21 -198
37 -238 126 -303 42 -32 39 -34 114 83 26 41 49 76 50 78 2 2 38 -26 81 -61
67 -56 80 -64 96 -54 26 17 31 45 32 174 0 62 3 113 5 113 2 0 28 -24 56 -53
62 -63 117 -107 126 -101 4 2 6 55 5 118 0 63 2 112 7 109 4 -2 13 -19 21 -37
23 -55 41 -66 107 -66 l60 0 -1 88 c-1 48 -1 102 -1 121 l1 33 70 -66 c38 -36
88 -75 110 -86 l40 -20 -5 111 -4 112 27 -25 c64 -59 192 -158 205 -158 26 0
40 45 33 102 -4 29 -11 57 -15 63 -4 5 -18 37 -31 70 -13 33 -27 64 -32 69
-16 19 -7 47 22 64 l30 19 -30 46 c-16 26 -33 47 -37 47 -5 0 -14 9 -21 20
-11 18 -10 19 11 11 43 -17 260 -31 273 -18 2 1 -44 54 -102 116 -93 101 -143
164 -117 148 27 -17 267 -36 280 -23 2 2 -20 30 -49 62 -29 33 -46 54 -38 47
8 -6 42 -25 75 -42 l60 -31 17 22 c50 68 39 66 104 17 53 -41 129 -89 139 -89
2 0 7 17 11 38 4 20 8 46 11 57 2 11 6 42 9 70 3 27 7 51 9 53 2 2 20 -22 41
-54 85 -137 127 -160 269 -155 l40 1 -3 110 c-2 60 -1 110 3 110 3 0 25 -10
48 -23 59 -33 128 -57 160 -57 40 0 94 25 107 50 26 49 -14 187 -74 254 -14
16 -26 30 -26 32 0 2 45 -17 100 -42 55 -24 102 -44 104 -44 6 0 -50 143 -79
199 -14 28 -25 53 -25 56 0 2 21 -11 48 -31 57 -45 117 -71 168 -76 30 -2 39
1 38 12 -1 18 -13 103 -20 142 l-6 28 59 -29 c55 -28 75 -35 98 -32 6 1 10 37
9 89 -1 84 5 127 28 185 12 30 20 33 40 14 7 -6 38 -32 68 -57 30 -25 57 -47
60 -50 14 -16 152 -121 200 -152 76 -50 195 -114 188 -102 -2 5 -39 79 -81
164 -84 172 -110 231 -103 238 3 2 41 -22 86 -54 44 -33 114 -83 156 -111 l75
-53 89 0 89 0 -5 41 c-7 59 -44 126 -98 179 l-45 45 59 -3 c163 -10 202 133
72 256 -33 30 -33 32 -7 15 49 -33 118 -51 181 -48 110 4 107 3 92 23 -15 21
-77 95 -156 186 -64 73 -78 96 -60 96 7 1 26 11 42 25 26 21 28 26 16 40 -8 9
-36 30 -63 45 l-50 28 107 -5 106 -5 -1 38 c0 47 -22 67 -137 126 -126 65
-176 105 -118 94 23 -4 98 -13 164 -20 17 -2 32 0 32 5 0 10 -106 91 -150 114
l-35 19 82 15 c45 9 84 19 88 22 3 4 -21 31 -55 62 l-60 56 17 51 c15 47 18
50 30 34 15 -20 73 -169 124 -316 38 -110 41 -111 114 -77 69 33 117 97 129
175 4 25 -32 121 -79 209 -61 114 -62 120 -11 81 61 -46 125 -75 187 -85 l52
-8 -6 88 c-3 48 -11 97 -17 109 -17 31 -7 34 34 9 43 -25 104 -41 129 -33 13
4 16 11 11 27 -6 19 -108 238 -137 291 -7 15 0 12 29 -10 117 -92 268 -176
339 -190 62 -12 125 -6 173 18 l45 21 -56 17 c-75 23 -168 92 -259 190 -71 75
-146 180 -130 180 4 0 43 -22 87 -50 97 -60 208 -115 253 -124 17 -4 32 -6 32
-4 0 3 -34 40 -76 84 -94 98 -184 199 -184 208 0 17 57 2 126 -34 43 -22 78
-39 80 -37 1 1 -23 45 -53 97 -30 52 -57 101 -60 107 -5 13 62 -20 170 -83
l57 -33 1 29 c1 38 1 74 0 103 -1 22 -40 91 -129 232 -31 48 -52 122 -31 110
5 -4 9 -12 9 -20 0 -7 8 -33 19 -57 54 -126 264 -228 387 -188 67 22 69 27 18
79 -57 57 -120 145 -168 234 -20 38 -36 71 -36 73 0 2 36 -21 80 -51 45 -30
87 -55 94 -55 10 0 13 21 12 88 -1 79 -4 92 -33 142 -18 30 -75 109 -127 175
-52 66 -94 121 -92 122 2 2 25 -5 52 -16 238 -94 313 -108 368 -68 17 12 15
16 -25 54 -63 60 -84 77 -179 151 -47 37 -90 71 -97 77 -6 5 -41 32 -78 59
-36 27 -64 51 -61 53 3 3 106 -26 258 -73 14 -4 15 0 7 37 -5 22 -16 53 -24
69 -22 42 -104 119 -164 153 l-53 30 47 18 c53 20 110 61 126 90 13 25 22 139
10 139 -4 0 -42 -9 -85 -20 -91 -23 -145 -31 -246 -35 -178 -7 -280 33 -420
165 l-35 33 33 -6 c18 -4 79 -25 136 -47 57 -23 114 -43 126 -45 20 -4 125 29
142 44 5 4 -25 30 -65 58 -78 55 -273 203 -266 203 2 0 28 -9 57 -20 29 -11
63 -20 76 -20 41 0 153 94 187 157 11 20 10 26 -9 43 -59 55 -188 101 -341
121 -47 6 -87 13 -89 14 -2 2 14 11 35 20 21 10 71 33 112 53 l74 35 -24 18
c-97 75 -451 195 -535 183 -11 -2 -39 -5 -64 -8 -25 -3 -61 -10 -80 -16 l-35
-10 27 25 c26 24 45 62 35 71 -6 6 -115 7 -152 1 -16 -3 -50 -9 -74 -13 l-45
-7 45 39 c61 54 62 55 91 94 15 19 29 47 33 62 9 37 20 39 290 63 39 3 84 8
100 10 17 2 64 7 104 11 l75 7 -30 24 c-16 13 -56 33 -88 45 l-60 22 63 29
c34 16 60 31 59 33 -6 6 -214 26 -290 28 -16 1 -28 2 -28 4 0 8 210 68 265 76
92 13 115 20 112 30 -2 6 -12 12 -23 14 -47 8 -45 14 12 41 81 39 174 117 174
147 0 30 -21 36 -147 39 -57 2 -106 5 -108 7 -2 2 22 48 55 101 33 53 57 97
53 97 -20 0 -220 -76 -257 -98 -5 -3 -6 11 -2 32 l7 38 -68 -7 c-37 -4 -77 -9
-88 -11 -15 -2 -13 2 10 18 79 57 238 239 208 238 -4 0 -52 -11 -105 -24 -54
-13 -98 -22 -98 -21 0 1 31 26 70 54 87 65 95 76 46 67 -39 -7 -202 -72 -224
-89 -27 -21 -22 4 17 80 41 83 70 175 63 205 -3 16 -8 15 -50 -9 -26 -14 -67
-40 -92 -58 -71 -49 -68 -49 -60 -2 5 23 11 80 15 125 l7 84 -59 -43 c-32 -23
-60 -45 -63 -49 -3 -3 -25 -21 -50 -40 -25 -19 -46 -38 -48 -42 -9 -21 -20 -5
-13 20 6 23 7 53 2 100 0 6 -5 12 -9 12 -12 0 -85 -71 -112 -109 -16 -23 -25
-30 -28 -20 -2 8 -13 31 -23 53 -11 21 -19 40 -17 41 2 1 58 21 125 43 108 36
154 55 295 120 70 32 34 44 -92 30 -54 -6 -54 -6 -23 8 18 8 90 29 160 47
l128 34 -40 13 c-22 8 -77 14 -122 14 -46 1 -83 3 -83 6 1 3 24 16 53 29 97
46 297 180 297 201 0 4 -15 6 -32 4 -18 -1 -87 -5 -153 -9 -66 -3 -135 -7
-154 -10 -30 -4 -33 -2 -27 18 3 12 9 39 12 59 l6 37 -116 -39 c-64 -21 -116
-37 -116 -35 0 3 11 28 24 57 21 47 86 223 86 234 0 10 -25 1 -101 -36 -120
-59 -120 -59 31 52 138 100 284 228 261 228 -5 0 -70 -18 -145 -39 -76 -22
-154 -43 -174 -46 l-37 -6 40 40 c40 39 130 179 121 188 -12 13 -130 -61 -229
-144 -62 -51 -115 -93 -119 -93 -5 0 -8 8 -9 18 -5 110 -28 257 -41 257 -2 0
-33 -34 -68 -75 -118 -138 -158 -178 -162 -161 -2 9 0 58 5 109 l9 93 54 26
c53 25 68 42 39 44 -8 1 -19 3 -25 4 -5 1 -18 3 -27 4 -22 1 8 34 95 103 l62
50 0 130 0 130 -32 -7 c-18 -4 -71 -23 -118 -42 -125 -51 -131 -51 -81 -4 l43
41 0 78 c0 66 -9 162 -16 169 -1 1 -22 -11 -46 -26 -25 -16 -72 -43 -105 -60
-33 -18 -73 -41 -90 -51 -16 -10 -33 -19 -36 -19 -4 -1 -10 20 -14 45 -13 88
-15 89 -68 37 -27 -26 -62 -66 -79 -90 -17 -24 -35 -43 -39 -43 -3 0 -10 26
-15 58 -4 31 -8 59 -9 62 -1 3 -7 30 -13 60 -7 30 -16 60 -20 67 -11 17 -58
-39 -107 -129 -35 -62 -45 -73 -70 -76 -17 -2 -27 -1 -23 3 3 4 2 21 -4 38 -5
18 -14 49 -19 71 -16 64 -70 197 -78 191 -5 -2 -14 -38 -21 -79 l-14 -75 -30
30 c-70 68 -137 39 -161 -69 -6 -29 -9 -32 -38 -27 -18 3 -39 8 -47 10 -8 2
-28 6 -43 9 -15 3 -53 12 -84 21 -30 9 -57 15 -58 13 -6 -5 -14 -80 -20 -168
-3 -46 -7 -85 -8 -86 -1 -2 -51 10 -110 25 -59 16 -107 28 -108 27 -1 -2 -7
-29 -13 -62 -5 -29 -12 -133 -17 -256 l-2 -57 -26 18 c-14 11 -34 28 -44 39
-20 22 -94 58 -103 49 -3 -3 -6 -49 -7 -102 0 -71 -4 -93 -11 -83 -62 84 -162
168 -184 154 -6 -3 -10 -34 -10 -69 0 -34 0 -75 -1 -90 l-1 -28 -62 46 c-101
73 -92 73 -133 5 l-37 -60 -30 25 c-16 14 -37 25 -46 26 -9 0 -25 2 -34 4 -25
5 -78 -34 -109 -80 -15 -22 -47 -80 -72 -130 l-45 -90 4 100 c3 55 6 117 8
138 4 37 3 38 -22 32 -24 -6 -25 -5 -10 17 8 13 21 33 29 45 8 13 35 30 61 39
68 22 75 36 41 75 l-28 31 -92 -5 c-51 -4 -93 -5 -93 -3 0 1 11 30 25 64 14
34 25 64 25 66 0 9 -61 -21 -104 -51 -24 -17 -62 -54 -85 -83 l-40 -51 -7 28
c-3 15 -18 69 -33 118 l-27 90 -52 -1 c-29 -1 -55 -3 -56 -5 -3 -4 -9 -33 -21
-114 -1 -11 -3 -30 -4 -42 0 -13 -6 -23 -13 -23 -6 0 -9 3 -6 6 13 13 -148
214 -172 214 -8 0 -28 -78 -36 -140 -3 -25 -10 -63 -14 -85 -6 -31 -8 -34 -10
-15 -2 14 -4 30 -5 35 -1 6 -5 33 -10 62 -7 46 -9 50 -25 41 -29 -18 -79 -104
-93 -158 l-13 -50 -75 55 -74 56 -5 -122 -5 -122 -19 57 c-11 31 -24 59 -28
62 -5 3 -25 -11 -44 -31 -33 -35 -36 -37 -66 -24 -16 7 -42 29 -57 48 -24 33
-30 36 -72 33 -39 -2 -158 -37 -234 -68 -20 -8 -20 -8 -1 12 21 20 102 129
154 205 l32 47 -73 -19 c-39 -10 -76 -19 -80 -19 -5 0 14 28 43 63 28 34 57
69 63 77 7 9 29 36 50 62 20 25 37 49 37 51 0 3 -14 2 -30 -3 -17 -5 -31 -9
-33 -9 -3 0 -34 -10 -72 -24 -35 -12 -103 -41 -159 -68 -22 -10 -41 -17 -43
-16 -7 7 62 104 95 135 21 18 63 46 95 61 l58 28 -71 31 c-38 18 -77 32 -85
32 -26 0 -16 18 23 41 46 28 122 89 122 98 0 4 -31 7 -70 6 -38 -1 -70 3 -70
7 0 4 6 8 13 9 13 1 15 1 102 19 74 15 168 57 218 98 l38 31 -33 17 c-26 14
-58 18 -150 19 -65 0 -118 2 -118 5 0 7 39 23 170 71 58 21 101 38 95 38 -5 1
-26 15 -45 31 -19 17 -63 49 -98 72 -34 23 -61 47 -59 53 4 10 80 38 205 75
39 11 72 24 72 29 0 26 -135 55 -282 60 -15 1 -15 4 -1 41 9 22 14 42 11 45
-15 16 -256 -85 -360 -151 l-38 -24 19 42 c10 24 24 55 30 70 6 15 38 49 71
74 33 26 58 49 56 52 -7 7 -102 -17 -181 -45 -168 -59 -152 -56 -175 -33 -13
13 -28 19 -43 15 -12 -3 -35 -8 -51 -11 -19 -5 -31 -2 -37 7 -14 23 -11 26 43
44 74 24 135 57 196 105 52 41 63 58 40 57 -7 0 -47 1 -88 2 l-75 2 130 47
c71 26 130 52 130 57 0 6 -42 11 -103 12 -57 1 -105 3 -107 5 -2 2 24 26 58
53 70 55 210 195 203 202 -3 3 -76 -18 -163 -46 -87 -27 -171 -53 -186 -57
l-28 -6 32 48 c17 27 39 60 49 74 32 46 71 130 60 130 -5 0 -38 -17 -72 -38
-117 -71 -178 -102 -179 -89 0 7 -1 44 -2 84 -1 39 -5 74 -8 77 -3 3 -43 -30
-88 -74 -46 -44 -84 -80 -85 -80 -2 0 10 26 25 58 48 100 69 152 60 152 -5 0
-32 -16 -60 -35 -53 -37 -118 -75 -127 -75 -2 0 0 8 5 18 10 19 21 83 22 132
3 78 -4 220 -9 220 -24 0 -115 -110 -173 -210 -42 -74 -43 -74 -49 -45 -9 43
-65 153 -98 193 l-28 34 -36 -34 c-19 -18 -47 -56 -61 -84 -23 -46 -44 -118
-39 -136 6 -22 -16 -4 -32 26 -24 46 -72 91 -80 77 -4 -6 -5 -11 -1 -11 3 0 1
-8 -4 -18 -6 -11 -11 -38 -12 -61 -2 -23 -7 -45 -11 -47 -4 -3 -8 0 -8 6 0 6
-7 27 -15 47 l-15 36 -31 -29 c-16 -15 -41 -48 -55 -71 l-25 -44 -30 21 c-16
12 -29 25 -29 29 0 3 16 37 36 74 19 37 32 72 29 77 -8 13 -52 7 -86 -10 -13
-7 -68 -44 -122 -83 -54 -38 -99 -68 -101 -66 -2 2 -6 29 -10 59 -6 56 -18
112 -31 142 -5 14 -14 9 -53 -27 -26 -24 -60 -55 -76 -69 l-30 -25 -23 77
c-36 114 -96 261 -106 255 -5 -3 -6 26 -2 63 l6 69 -26 -30 c-14 -16 -58 -81
-97 -144 l-72 -114 -21 65 c-12 36 -34 113 -49 171 l-28 106 -23 -27 c-49 -60
-58 -107 -59 -314 -1 -60 -4 -108 -8 -108 -4 0 -23 14 -43 32 -41 35 -70 87
-80 141 -7 38 -28 67 -47 67 -15 0 -3 -113 22 -195 12 -38 25 -84 29 -101 5
-18 12 -37 16 -44 12 -19 -7 -7 -122 82 -56 43 -106 78 -112 78 -5 0 -9 -8 -9
-17 1 -29 -12 -136 -18 -156 -5 -17 -8 -16 -24 9 -17 28 -17 30 1 60 26 42 44
133 30 147 -22 22 -107 12 -170 -20 l-60 -30 39 46 c68 82 127 197 116 227 -5
13 -11 10 -32 -15 -40 -48 -46 -37 -14 27 16 31 30 66 31 77 4 32 -11 82 -29
98 -16 14 -22 11 -72 -35 -30 -28 -65 -60 -78 -71 l-22 -21 4 72 c3 40 1 72
-3 72 -6 0 -102 -94 -179 -176 -27 -29 -28 -12 -5 74 43 151 45 140 -23 102
l-59 -33 46 49 c72 77 99 108 99 115 0 10 -193 8 -212 -2 -9 -5 -24 -16 -33
-25 -22 -22 -33 -9 -37 46 l-4 45 -72 1 c-39 0 -75 4 -79 8 -4 4 -9 31 -10 59
-5 93 -71 209 -88 155z m4295 -3374 c0 -13 -45 -70 -78 -101 -20 -18 -55 -42
-78 -54 -41 -19 -44 -19 -69 -3 -19 13 -24 22 -19 38 18 57 64 86 174 111 69
16 70 16 70 9z m3763 -86 c-31 -41 -176 -218 -179 -218 -1 0 4 24 12 53 8 28
16 70 19 91 3 22 6 41 8 42 3 3 131 43 141 43 5 1 4 -5 -1 -11z m-17506 -3944
c-3 -3 -12 -4 -19 -1 -8 3 -5 6 6 6 11 1 17 -2 13 -5z m10782 -6296 c17 -18
31 -37 31 -41 0 -4 20 -28 45 -53 42 -44 44 -48 39 -92 -3 -25 -8 -50 -10 -54
-3 -4 -7 -17 -9 -28 -8 -42 -73 -163 -213 -394 -80 -133 -152 -249 -160 -259
-9 -10 -39 -31 -66 -47 -72 -40 -307 -116 -293 -94 5 10 12 48 22 129 4 28 8
61 11 75 2 14 7 41 9 60 3 19 12 76 20 125 7 50 17 110 20 133 l7 44 27 -26
c15 -14 30 -26 33 -26 11 0 -8 304 -20 325 -3 6 32 -27 79 -72 113 -109 196
-176 201 -160 3 6 4 47 3 90 -1 42 2 77 5 77 4 0 21 -13 37 -29 19 -18 39 -28
54 -26 13 1 35 3 49 4 45 2 52 13 40 64 -5 26 -13 105 -17 177 -5 115 -4 130
10 130 9 0 30 -15 46 -32z"/>
</g>
</svg>
